Coordinates
version=1
nRows=9
nColumns=24
inDegrees=yes

Units are S.I. units (second, meters, Newtons, ...)
Angles are in degrees.

endheader
time	pelvis_tilt	pelvis_list	pelvis_rotation	pelvis_tx	pelvis_ty	pelvis_tz	hip_flexion_r	hip_adduction_r	hip_rotation_r	knee_angle_r	ankle_angle_r	subtalar_angle_r	mtp_angle_r	hip_flexion_l	hip_adduction_l	hip_rotation_l	knee_angle_l	ankle_angle_l	subtalar_angle_l	mtp_angle_l	lumbar_extension	lumbar_bending	lumbar_rotation
      1.76000000	     -6.38556782	     -2.35373225	      0.42515289	      0.11858277	      1.28722638	     -0.91314293	      8.36342069	      7.39719271	     17.68110033	     -3.19945407	     -4.31783973	    -13.97244096	     -0.15763289	     21.60195277	      1.80506310	     -4.27495756	    -53.85859353	     -8.82526296	    -27.58845738	      7.06225673	     -1.86278957	      5.23828850	     -1.85262085
      1.76500000	     -6.28868883	     -2.34200028	      0.11619071	      0.12318579	      1.28731205	     -0.91279068	      7.83884451	      7.43797071	     17.92409395	     -3.05541799	     -4.07112068	    -13.86169766	     -0.09249249	     22.13537071	      1.82357393	     -4.40011027	    -53.36011711	     -7.93191163	    -27.50436595	      7.05799646	     -2.07442898	      5.27616944	     -1.46892148
      1.77000000	     -6.22115841	     -2.33890271	     -0.17274929	      0.12778339	      1.28733134	     -0.91246645	      7.36026600	      7.48227682	     18.13078573	     -2.93724821	     -3.81684309	    -13.74127435	     -0.01349183	     22.69009680	      1.83752053	     -4.48336726	    -52.81357988	     -6.96612600	    -27.20618126	      7.09054833	     -2.25272935	      5.32309776	     -1.13059452
      1.77500000	     -6.14499733	     -2.34945552	     -0.46449058	      0.13236569	      1.28729436	     -0.91215797	      6.87855888	      7.53919656	     18.32306162	     -2.82988767	     -3.55508573	    -13.61981601	      0.05270566	     23.22457772	      1.83586222	     -4.55415110	    -52.22159618	     -6.09103624	    -26.95396307	      7.12494776	     -2.44315096	      5.38310367	     -0.79903759
      1.78000000	     -6.07345552	     -2.36722490	     -0.74814660	      0.13693121	      1.28721839	     -0.91187481	      6.41114491	      7.59798575	     18.52230766	     -2.74021271	     -3.28958350	    -13.50323937	      0.11145977	     23.74822300	      1.82672183	     -4.60763409	    -51.57198884	     -5.28753942	    -26.72796344	      7.16455915	     -2.62909565	      5.45128798	     -0.47589470
      1.78500000	     -5.99159637	     -2.39516760	     -1.02612735	      0.14148152	      1.28710035	     -0.91159657	      5.93914449	      7.66606802	     18.71675796	     -2.66286379	     -3.01776897	    -13.39626626	      0.17002153	     24.24601866	      1.80194600	     -4.64757755	    -50.87417812	     -4.53477625	    -26.47389181	      7.21581329	     -2.82804793	      5.52588583	     -0.16819099
      1.79000000	     -5.92315445	     -2.42467297	     -1.29887167	      0.14605127	      1.28694763	     -0.91133417	      5.49243063	      7.73414833	     18.90490742	     -2.60949971	     -2.76788674	    -13.32062327	      0.21218541	     24.73016908	      1.77339018	     -4.68743618	    -50.10379930	     -3.87715803	    -26.37323184	      7.24292150	     -3.00961115	      5.60459075	      0.09228093
      1.79500000	     -5.83898813	     -2.46777847	     -1.55921417	      0.15059222	      1.28675333	     -0.91108072	      5.02393955	      7.80876198	     19.12752800	     -2.54750834	     -2.48363553	    -13.25335706	      0.26039841	     25.18838373	      1.72730456	     -4.69846576	    -49.30039713	     -3.26178632	    -26.18009699	      7.28925445	     -3.20801185	      5.68376173	      0.38503132
      1.80000000	     -5.74976170	     -2.52263942	     -1.81599328	      0.15507919	      1.28651938	     -0.91086717	      4.56345768	      7.89051181	     19.37741375	     -2.50470360	     -2.20376692	    -13.20579675	      0.33049964	     25.63393755	      1.66660273	     -4.68792970	    -48.46703097	     -2.67558329	    -25.89582819	      7.35638119	     -3.42460323	      5.78400666	      0.68866661
